<mxfile host="Electron" agent="Mozilla/5.0 (Windows NT 10.0; Win64; x64) AppleWebKit/537.36 (KHTML, like Gecko) draw.io/24.7.8 Chrome/128.0.6613.36 Electron/32.0.1 Safari/537.36" version="24.7.8">
  <diagram name="Strona-1" id="ddxgwlUEBwx8M-cLDfrJ">
    <mxGraphModel dx="2440" dy="3393" grid="1" gridSize="10" guides="1" tooltips="1" connect="1" arrows="1" fold="1" page="1" pageScale="1" pageWidth="827" pageHeight="1169" math="0" shadow="0">
      <root>
        <mxCell id="0" />
        <mxCell id="1" parent="0" />
        <mxCell id="s89tCDc4q5UGyIlG00Sl-1" value="Poszkodowany&lt;div&gt;&lt;br&gt;&lt;/div&gt;" style="shape=umlActor;verticalLabelPosition=bottom;verticalAlign=top;html=1;outlineConnect=0;perimeterSpacing=8;" parent="1" vertex="1">
          <mxGeometry x="70" y="282" width="30" height="60" as="geometry" />
        </mxCell>
        <mxCell id="s89tCDc4q5UGyIlG00Sl-3" value="" style="swimlane;startSize=0;" parent="1" vertex="1">
          <mxGeometry x="180" y="-10" width="1130" height="910" as="geometry">
            <mxRectangle x="180" y="54" width="50" height="40" as="alternateBounds" />
          </mxGeometry>
        </mxCell>
        <mxCell id="s89tCDc4q5UGyIlG00Sl-8" value="Zgłoś potrzeby" style="ellipse;whiteSpace=wrap;html=1;" parent="s89tCDc4q5UGyIlG00Sl-3" vertex="1">
          <mxGeometry x="51" y="270" width="120" height="80" as="geometry" />
        </mxCell>
        <mxCell id="s89tCDc4q5UGyIlG00Sl-11" value="Wyświetl zgłoszenie" style="ellipse;whiteSpace=wrap;html=1;" parent="s89tCDc4q5UGyIlG00Sl-3" vertex="1">
          <mxGeometry x="51" y="446" width="120" height="80" as="geometry" />
        </mxCell>
        <mxCell id="s89tCDc4q5UGyIlG00Sl-10" value="&amp;lt;&amp;lt;include&amp;gt;&amp;gt;" style="endArrow=open;endSize=12;dashed=1;html=1;rounded=0;entryX=0.5;entryY=0;entryDx=0;entryDy=0;exitX=0.5;exitY=1;exitDx=0;exitDy=0;" parent="s89tCDc4q5UGyIlG00Sl-3" source="s89tCDc4q5UGyIlG00Sl-13" target="s89tCDc4q5UGyIlG00Sl-8" edge="1">
          <mxGeometry width="160" relative="1" as="geometry">
            <mxPoint x="110" y="126" as="sourcePoint" />
            <mxPoint x="200" y="416" as="targetPoint" />
          </mxGeometry>
        </mxCell>
        <mxCell id="s89tCDc4q5UGyIlG00Sl-13" value="Otrzymaj powiadomienie" style="ellipse;whiteSpace=wrap;html=1;" parent="s89tCDc4q5UGyIlG00Sl-3" vertex="1">
          <mxGeometry x="51" y="100" width="120" height="80" as="geometry" />
        </mxCell>
        <mxCell id="s89tCDc4q5UGyIlG00Sl-38" value="Realizuj zadanie" style="ellipse;whiteSpace=wrap;html=1;" parent="s89tCDc4q5UGyIlG00Sl-3" vertex="1">
          <mxGeometry x="491" y="300" width="120" height="80" as="geometry" />
        </mxCell>
        <mxCell id="s89tCDc4q5UGyIlG00Sl-39" value="&amp;lt;&amp;lt;extend&amp;gt;&amp;gt;" style="endArrow=open;endSize=12;dashed=1;html=1;rounded=0;entryX=0;entryY=0;entryDx=0;entryDy=0;exitX=1;exitY=0.5;exitDx=0;exitDy=0;" parent="s89tCDc4q5UGyIlG00Sl-3" source="s89tCDc4q5UGyIlG00Sl-8" target="s89tCDc4q5UGyIlG00Sl-38" edge="1">
          <mxGeometry width="160" relative="1" as="geometry">
            <mxPoint x="410" y="386" as="sourcePoint" />
            <mxPoint x="410" y="290" as="targetPoint" />
          </mxGeometry>
        </mxCell>
        <mxCell id="s89tCDc4q5UGyIlG00Sl-43" value="Realizuj zlecenie transportu" style="ellipse;whiteSpace=wrap;html=1;" parent="s89tCDc4q5UGyIlG00Sl-3" vertex="1">
          <mxGeometry x="731" y="244" width="120" height="80" as="geometry" />
        </mxCell>
        <mxCell id="s89tCDc4q5UGyIlG00Sl-40" value="" style="endArrow=block;endSize=16;endFill=0;html=1;rounded=0;entryX=1;entryY=0.5;entryDx=0;entryDy=0;exitX=0;exitY=0.5;exitDx=0;exitDy=0;" parent="s89tCDc4q5UGyIlG00Sl-3" source="s89tCDc4q5UGyIlG00Sl-43" target="s89tCDc4q5UGyIlG00Sl-38" edge="1">
          <mxGeometry width="160" relative="1" as="geometry">
            <mxPoint x="475" y="693.72" as="sourcePoint" />
            <mxPoint x="567.5735931288073" y="556.0042712474619" as="targetPoint" />
          </mxGeometry>
        </mxCell>
        <mxCell id="s89tCDc4q5UGyIlG00Sl-44" value="Realizuj zlecenie&lt;div&gt;pomocy&lt;/div&gt;" style="ellipse;whiteSpace=wrap;html=1;" parent="s89tCDc4q5UGyIlG00Sl-3" vertex="1">
          <mxGeometry x="320" y="394" width="120" height="80" as="geometry" />
        </mxCell>
        <mxCell id="s89tCDc4q5UGyIlG00Sl-45" value="" style="endArrow=block;endSize=16;endFill=0;html=1;rounded=0;entryX=0;entryY=1;entryDx=0;entryDy=0;exitX=1;exitY=0;exitDx=0;exitDy=0;" parent="s89tCDc4q5UGyIlG00Sl-3" source="s89tCDc4q5UGyIlG00Sl-44" target="s89tCDc4q5UGyIlG00Sl-38" edge="1">
          <mxGeometry width="160" relative="1" as="geometry">
            <mxPoint x="462.42640687119297" y="405.7157287525383" as="sourcePoint" />
            <mxPoint x="518" y="232" as="targetPoint" />
          </mxGeometry>
        </mxCell>
        <mxCell id="s89tCDc4q5UGyIlG00Sl-51" value="Przydziel wolontariusza" style="ellipse;whiteSpace=wrap;html=1;" parent="s89tCDc4q5UGyIlG00Sl-3" vertex="1">
          <mxGeometry x="400" y="500" width="120" height="80" as="geometry" />
        </mxCell>
        <mxCell id="s89tCDc4q5UGyIlG00Sl-52" value="&amp;lt;&amp;lt;include&amp;gt;&amp;gt;" style="endArrow=open;endSize=12;dashed=1;html=1;rounded=0;exitX=1;exitY=1;exitDx=0;exitDy=0;entryX=0.5;entryY=0;entryDx=0;entryDy=0;" parent="s89tCDc4q5UGyIlG00Sl-3" source="s89tCDc4q5UGyIlG00Sl-44" target="s89tCDc4q5UGyIlG00Sl-51" edge="1">
          <mxGeometry width="160" relative="1" as="geometry">
            <mxPoint x="462.42640687119297" y="462.2842712474617" as="sourcePoint" />
            <mxPoint x="482.42640687119297" y="517.7157287525379" as="targetPoint" />
          </mxGeometry>
        </mxCell>
        <mxCell id="s89tCDc4q5UGyIlG00Sl-55" value="Przydziel ładunek" style="ellipse;whiteSpace=wrap;html=1;" parent="s89tCDc4q5UGyIlG00Sl-3" vertex="1">
          <mxGeometry x="746" y="382" width="90" height="64" as="geometry" />
        </mxCell>
        <mxCell id="s89tCDc4q5UGyIlG00Sl-68" value="Przydziel środek transportu" style="ellipse;whiteSpace=wrap;html=1;" parent="s89tCDc4q5UGyIlG00Sl-3" vertex="1">
          <mxGeometry x="631" y="374" width="90" height="64" as="geometry" />
        </mxCell>
        <mxCell id="s89tCDc4q5UGyIlG00Sl-70" value="&amp;lt;&amp;lt;include&amp;gt;&amp;gt;" style="endArrow=open;endSize=12;dashed=1;html=1;rounded=0;exitX=0;exitY=1;exitDx=0;exitDy=0;entryX=0.5;entryY=0;entryDx=0;entryDy=0;" parent="s89tCDc4q5UGyIlG00Sl-3" source="s89tCDc4q5UGyIlG00Sl-43" target="s89tCDc4q5UGyIlG00Sl-68" edge="1">
          <mxGeometry width="160" relative="1" as="geometry">
            <mxPoint x="160" y="396" as="sourcePoint" />
            <mxPoint x="160" y="296" as="targetPoint" />
          </mxGeometry>
        </mxCell>
        <mxCell id="s89tCDc4q5UGyIlG00Sl-75" value="Przydziel trasę" style="ellipse;whiteSpace=wrap;html=1;" parent="s89tCDc4q5UGyIlG00Sl-3" vertex="1">
          <mxGeometry x="876" y="370" width="90" height="64" as="geometry" />
        </mxCell>
        <mxCell id="s89tCDc4q5UGyIlG00Sl-76" value="&amp;lt;&amp;lt;include&amp;gt;&amp;gt;" style="endArrow=open;endSize=12;dashed=1;html=1;rounded=0;exitX=1;exitY=1;exitDx=0;exitDy=0;entryX=0.5;entryY=0;entryDx=0;entryDy=0;" parent="s89tCDc4q5UGyIlG00Sl-3" source="s89tCDc4q5UGyIlG00Sl-43" target="s89tCDc4q5UGyIlG00Sl-75" edge="1">
          <mxGeometry width="160" relative="1" as="geometry">
            <mxPoint x="638" y="414" as="sourcePoint" />
            <mxPoint x="560" y="446" as="targetPoint" />
          </mxGeometry>
        </mxCell>
        <mxCell id="s89tCDc4q5UGyIlG00Sl-77" value="&amp;lt;&amp;lt;include&amp;gt;&amp;gt;" style="endArrow=open;endSize=12;dashed=1;html=1;rounded=0;exitX=0.5;exitY=1;exitDx=0;exitDy=0;entryX=0.5;entryY=0;entryDx=0;entryDy=0;" parent="s89tCDc4q5UGyIlG00Sl-3" source="s89tCDc4q5UGyIlG00Sl-43" target="s89tCDc4q5UGyIlG00Sl-55" edge="1">
          <mxGeometry width="160" relative="1" as="geometry">
            <mxPoint x="722" y="414" as="sourcePoint" />
            <mxPoint x="830" y="466" as="targetPoint" />
          </mxGeometry>
        </mxCell>
        <mxCell id="s89tCDc4q5UGyIlG00Sl-78" value="&amp;lt;&amp;lt;include&amp;gt;&amp;gt;" style="endArrow=open;endSize=12;dashed=1;html=1;rounded=0;exitX=0.5;exitY=0;exitDx=0;exitDy=0;entryX=1;entryY=0.5;entryDx=0;entryDy=0;" parent="s89tCDc4q5UGyIlG00Sl-3" source="s89tCDc4q5UGyIlG00Sl-38" target="s89tCDc4q5UGyIlG00Sl-13" edge="1">
          <mxGeometry width="160" relative="1" as="geometry">
            <mxPoint x="400" y="176" as="sourcePoint" />
            <mxPoint x="400" y="26" as="targetPoint" />
            <Array as="points">
              <mxPoint x="480" y="140" />
            </Array>
          </mxGeometry>
        </mxCell>
        <mxCell id="s89tCDc4q5UGyIlG00Sl-87" value="&amp;lt;&amp;lt;extend&amp;gt;&amp;gt;" style="endArrow=open;endSize=12;dashed=1;html=1;rounded=0;entryX=0.5;entryY=0;entryDx=0;entryDy=0;exitX=0;exitY=1;exitDx=0;exitDy=0;" parent="s89tCDc4q5UGyIlG00Sl-3" source="s89tCDc4q5UGyIlG00Sl-51" target="s89tCDc4q5UGyIlG00Sl-54" edge="1">
          <mxGeometry width="160" relative="1" as="geometry">
            <mxPoint x="460" y="260" as="sourcePoint" />
            <mxPoint x="180" y="260" as="targetPoint" />
          </mxGeometry>
        </mxCell>
        <mxCell id="s89tCDc4q5UGyIlG00Sl-88" value="&amp;lt;&amp;lt;extend&amp;gt;&amp;gt;" style="endArrow=open;endSize=12;dashed=1;html=1;rounded=0;entryX=0;entryY=1;entryDx=0;entryDy=0;exitX=0.828;exitY=0.065;exitDx=0;exitDy=0;exitPerimeter=0;" parent="s89tCDc4q5UGyIlG00Sl-3" source="s89tCDc4q5UGyIlG00Sl-86" target="s89tCDc4q5UGyIlG00Sl-44" edge="1">
          <mxGeometry width="160" relative="1" as="geometry">
            <mxPoint x="364" y="726" as="sourcePoint" />
            <mxPoint x="450" y="726" as="targetPoint" />
          </mxGeometry>
        </mxCell>
        <mxCell id="s89tCDc4q5UGyIlG00Sl-90" value="Przekaż środki finansowe" style="ellipse;whiteSpace=wrap;html=1;" parent="s89tCDc4q5UGyIlG00Sl-3" vertex="1">
          <mxGeometry x="610" y="730" width="120" height="80" as="geometry" />
        </mxCell>
        <mxCell id="s89tCDc4q5UGyIlG00Sl-91" value="Przekaż wsparcie rzeczowe" style="ellipse;whiteSpace=wrap;html=1;" parent="s89tCDc4q5UGyIlG00Sl-3" vertex="1">
          <mxGeometry x="850" y="730" width="120" height="80" as="geometry" />
        </mxCell>
        <mxCell id="s89tCDc4q5UGyIlG00Sl-54" value="Wyświetl przydział zadań" style="ellipse;whiteSpace=wrap;html=1;" parent="s89tCDc4q5UGyIlG00Sl-3" vertex="1">
          <mxGeometry x="260" y="791" width="120" height="80" as="geometry" />
        </mxCell>
        <mxCell id="s89tCDc4q5UGyIlG00Sl-86" value="Zgłoś wykonanie zadania" style="ellipse;whiteSpace=wrap;html=1;" parent="s89tCDc4q5UGyIlG00Sl-3" vertex="1">
          <mxGeometry x="234" y="596" width="120" height="80" as="geometry" />
        </mxCell>
        <mxCell id="s89tCDc4q5UGyIlG00Sl-92" value="Wyświetl przekazane darowizny" style="ellipse;whiteSpace=wrap;html=1;" parent="s89tCDc4q5UGyIlG00Sl-3" vertex="1">
          <mxGeometry x="935" y="815" width="120" height="80" as="geometry" />
        </mxCell>
        <mxCell id="s89tCDc4q5UGyIlG00Sl-95" value="Przekaż dary" style="ellipse;whiteSpace=wrap;html=1;" parent="s89tCDc4q5UGyIlG00Sl-3" vertex="1">
          <mxGeometry x="730" y="815" width="120" height="80" as="geometry" />
        </mxCell>
        <mxCell id="s89tCDc4q5UGyIlG00Sl-96" value="&amp;lt;&amp;lt;extend&amp;gt;&amp;gt;" style="endArrow=open;endSize=12;dashed=1;html=1;rounded=0;entryX=0;entryY=0.5;entryDx=0;entryDy=0;exitX=1;exitY=0.5;exitDx=0;exitDy=0;" parent="s89tCDc4q5UGyIlG00Sl-3" source="s89tCDc4q5UGyIlG00Sl-95" target="s89tCDc4q5UGyIlG00Sl-92" edge="1">
          <mxGeometry width="160" relative="1" as="geometry">
            <mxPoint x="440" y="631" as="sourcePoint" />
            <mxPoint x="440" y="416" as="targetPoint" />
          </mxGeometry>
        </mxCell>
        <mxCell id="s89tCDc4q5UGyIlG00Sl-97" value="" style="endArrow=block;endSize=16;endFill=0;html=1;rounded=0;entryX=0;entryY=0;entryDx=0;entryDy=0;exitX=1;exitY=1;exitDx=0;exitDy=0;" parent="s89tCDc4q5UGyIlG00Sl-3" source="s89tCDc4q5UGyIlG00Sl-90" target="s89tCDc4q5UGyIlG00Sl-95" edge="1">
          <mxGeometry width="160" relative="1" as="geometry">
            <mxPoint x="440" y="336" as="sourcePoint" />
            <mxPoint x="518" y="288" as="targetPoint" />
          </mxGeometry>
        </mxCell>
        <mxCell id="s89tCDc4q5UGyIlG00Sl-98" value="" style="endArrow=block;endSize=16;endFill=0;html=1;rounded=0;entryX=1;entryY=0;entryDx=0;entryDy=0;exitX=0;exitY=1;exitDx=0;exitDy=0;" parent="s89tCDc4q5UGyIlG00Sl-3" source="s89tCDc4q5UGyIlG00Sl-91" target="s89tCDc4q5UGyIlG00Sl-95" edge="1">
          <mxGeometry width="160" relative="1" as="geometry">
            <mxPoint x="730" y="281" as="sourcePoint" />
            <mxPoint x="602" y="288" as="targetPoint" />
          </mxGeometry>
        </mxCell>
        <mxCell id="s89tCDc4q5UGyIlG00Sl-99" value="Generuj potwierdzenie" style="ellipse;whiteSpace=wrap;html=1;" parent="s89tCDc4q5UGyIlG00Sl-3" vertex="1">
          <mxGeometry x="520" y="815" width="120" height="80" as="geometry" />
        </mxCell>
        <mxCell id="s89tCDc4q5UGyIlG00Sl-100" value="&amp;lt;&amp;lt;extend&amp;gt;&amp;gt;" style="endArrow=open;endSize=12;dashed=1;html=1;rounded=0;entryX=1;entryY=0.5;entryDx=0;entryDy=0;exitX=0;exitY=0.5;exitDx=0;exitDy=0;" parent="s89tCDc4q5UGyIlG00Sl-3" source="s89tCDc4q5UGyIlG00Sl-95" target="s89tCDc4q5UGyIlG00Sl-99" edge="1">
          <mxGeometry width="160" relative="1" as="geometry">
            <mxPoint x="745" y="791" as="sourcePoint" />
            <mxPoint x="855" y="791" as="targetPoint" />
          </mxGeometry>
        </mxCell>
        <mxCell id="s89tCDc4q5UGyIlG00Sl-106" value="&amp;lt;&amp;lt;extend&amp;gt;&amp;gt;" style="endArrow=open;endSize=12;dashed=1;html=1;rounded=0;entryX=1;entryY=1;entryDx=0;entryDy=0;exitX=0.5;exitY=0;exitDx=0;exitDy=0;" parent="s89tCDc4q5UGyIlG00Sl-3" source="s89tCDc4q5UGyIlG00Sl-91" target="s89tCDc4q5UGyIlG00Sl-55" edge="1">
          <mxGeometry width="160" relative="1" as="geometry">
            <mxPoint x="440" y="631" as="sourcePoint" />
            <mxPoint x="440" y="416" as="targetPoint" />
            <Array as="points">
              <mxPoint x="820" y="650" />
            </Array>
          </mxGeometry>
        </mxCell>
        <mxCell id="s89tCDc4q5UGyIlG00Sl-107" value="" style="endArrow=block;endSize=16;endFill=0;html=1;rounded=0;entryX=0.5;entryY=1;entryDx=0;entryDy=0;exitX=0.5;exitY=0;exitDx=0;exitDy=0;" parent="s89tCDc4q5UGyIlG00Sl-3" source="s89tCDc4q5UGyIlG00Sl-108" target="s89tCDc4q5UGyIlG00Sl-38" edge="1">
          <mxGeometry width="160" relative="1" as="geometry">
            <mxPoint x="500" y="494" as="sourcePoint" />
            <mxPoint x="578" y="446" as="targetPoint" />
          </mxGeometry>
        </mxCell>
        <mxCell id="s89tCDc4q5UGyIlG00Sl-108" value="Przekaż pomoc finansową" style="ellipse;whiteSpace=wrap;html=1;" parent="s89tCDc4q5UGyIlG00Sl-3" vertex="1">
          <mxGeometry x="491" y="566" width="120" height="80" as="geometry" />
        </mxCell>
        <mxCell id="s89tCDc4q5UGyIlG00Sl-109" value="&amp;lt;&amp;lt;extend&amp;gt;&amp;gt;" style="endArrow=open;endSize=12;dashed=1;html=1;rounded=0;entryX=0.5;entryY=1;entryDx=0;entryDy=0;exitX=0.5;exitY=0;exitDx=0;exitDy=0;" parent="s89tCDc4q5UGyIlG00Sl-3" source="s89tCDc4q5UGyIlG00Sl-90" target="s89tCDc4q5UGyIlG00Sl-108" edge="1">
          <mxGeometry width="160" relative="1" as="geometry">
            <mxPoint x="830" y="661" as="sourcePoint" />
            <mxPoint x="780" y="436" as="targetPoint" />
          </mxGeometry>
        </mxCell>
        <mxCell id="s89tCDc4q5UGyIlG00Sl-62" value="" style="fontStyle=1;align=center;verticalAlign=top;childLayout=stackLayout;horizontal=1;horizontalStack=0;resizeParent=1;resizeParentMax=0;resizeLast=0;marginBottom=0;" parent="s89tCDc4q5UGyIlG00Sl-3" vertex="1">
          <mxGeometry x="11" y="761" width="160" height="88" as="geometry" />
        </mxCell>
        <mxCell id="s89tCDc4q5UGyIlG00Sl-63" value="&lt;span style=&quot;font-weight: 400; text-align: center;&quot;&gt;Otrzymaj ocenę&lt;/span&gt;" style="html=1;align=left;spacingLeft=4;verticalAlign=middle;strokeColor=none;fillColor=none;fontStyle=1;whiteSpace=wrap;" parent="s89tCDc4q5UGyIlG00Sl-62" vertex="1">
          <mxGeometry width="160" height="30" as="geometry" />
        </mxCell>
        <mxCell id="s89tCDc4q5UGyIlG00Sl-64" value="" style="shape=ellipse;" parent="s89tCDc4q5UGyIlG00Sl-63" vertex="1">
          <mxGeometry x="1" width="20" height="16" relative="1" as="geometry">
            <mxPoint x="-25" y="7" as="offset" />
          </mxGeometry>
        </mxCell>
        <mxCell id="s89tCDc4q5UGyIlG00Sl-65" value="" style="line;strokeWidth=1;fillColor=none;align=left;verticalAlign=middle;spacingTop=-1;spacingLeft=3;spacingRight=3;rotatable=0;labelPosition=right;points=[];portConstraint=eastwest;" parent="s89tCDc4q5UGyIlG00Sl-62" vertex="1">
          <mxGeometry y="30" width="160" height="8" as="geometry" />
        </mxCell>
        <mxCell id="s89tCDc4q5UGyIlG00Sl-66" value="extension points" style="html=1;align=center;spacingLeft=4;verticalAlign=top;strokeColor=none;fillColor=none;whiteSpace=wrap;" parent="s89tCDc4q5UGyIlG00Sl-62" vertex="1">
          <mxGeometry y="38" width="160" height="25" as="geometry" />
        </mxCell>
        <mxCell id="s89tCDc4q5UGyIlG00Sl-67" value="Zrealizowano zadanie" style="html=1;align=left;spacingLeft=4;verticalAlign=top;strokeColor=none;fillColor=none;whiteSpace=wrap;" parent="s89tCDc4q5UGyIlG00Sl-62" vertex="1">
          <mxGeometry y="63" width="160" height="25" as="geometry" />
        </mxCell>
        <mxCell id="s89tCDc4q5UGyIlG00Sl-48" value="&lt;span style=&quot;text-align: left;&quot;&gt;Wystaw ocenę wolontariuszowi&lt;/span&gt;" style="ellipse;whiteSpace=wrap;html=1;" parent="s89tCDc4q5UGyIlG00Sl-3" vertex="1">
          <mxGeometry x="51" y="596" width="120" height="80" as="geometry" />
        </mxCell>
        <mxCell id="s89tCDc4q5UGyIlG00Sl-47" value="&amp;lt;&amp;lt;extend&amp;gt;&amp;gt;" style="endArrow=open;endSize=12;dashed=1;html=1;rounded=0;entryX=0.5;entryY=1;entryDx=0;entryDy=0;exitX=0.5;exitY=0;exitDx=0;exitDy=0;" parent="s89tCDc4q5UGyIlG00Sl-3" source="s89tCDc4q5UGyIlG00Sl-48" target="s89tCDc4q5UGyIlG00Sl-11" edge="1">
          <mxGeometry width="160" relative="1" as="geometry">
            <mxPoint x="110" y="516.0000000000002" as="sourcePoint" />
            <mxPoint x="180" y="260" as="targetPoint" />
          </mxGeometry>
        </mxCell>
        <mxCell id="s89tCDc4q5UGyIlG00Sl-110" value="&amp;lt;&amp;lt;extend&amp;gt;&amp;gt;" style="endArrow=open;endSize=12;dashed=1;html=1;rounded=0;entryX=0.5;entryY=0;entryDx=0;entryDy=0;exitX=0.5;exitY=1;exitDx=0;exitDy=0;" parent="s89tCDc4q5UGyIlG00Sl-3" source="s89tCDc4q5UGyIlG00Sl-48" target="s89tCDc4q5UGyIlG00Sl-63" edge="1">
          <mxGeometry width="160" relative="1" as="geometry">
            <mxPoint x="120" y="546" as="sourcePoint" />
            <mxPoint x="120" y="476" as="targetPoint" />
          </mxGeometry>
        </mxCell>
        <mxCell id="s89tCDc4q5UGyIlG00Sl-111" value="Wprowadź swoją lokalizację" style="ellipse;whiteSpace=wrap;html=1;" parent="s89tCDc4q5UGyIlG00Sl-3" vertex="1">
          <mxGeometry x="211" y="176" width="120" height="80" as="geometry" />
        </mxCell>
        <mxCell id="s89tCDc4q5UGyIlG00Sl-112" value="&amp;lt;&amp;lt;include&amp;gt;&amp;gt;" style="endArrow=open;endSize=12;dashed=1;html=1;rounded=0;entryX=0;entryY=1;entryDx=0;entryDy=0;exitX=1;exitY=0;exitDx=0;exitDy=0;" parent="s89tCDc4q5UGyIlG00Sl-3" source="s89tCDc4q5UGyIlG00Sl-8" target="s89tCDc4q5UGyIlG00Sl-111" edge="1">
          <mxGeometry width="160" relative="1" as="geometry">
            <mxPoint x="120" y="130" as="sourcePoint" />
            <mxPoint x="120" y="220" as="targetPoint" />
          </mxGeometry>
        </mxCell>
        <mxCell id="s89tCDc4q5UGyIlG00Sl-113" value="&amp;lt;&amp;lt;extend&amp;gt;&amp;gt;" style="endArrow=open;endSize=12;dashed=1;html=1;rounded=0;entryX=0.5;entryY=0;entryDx=0;entryDy=0;exitX=0.5;exitY=1;exitDx=0;exitDy=0;" parent="s89tCDc4q5UGyIlG00Sl-3" source="s89tCDc4q5UGyIlG00Sl-8" target="s89tCDc4q5UGyIlG00Sl-11" edge="1">
          <mxGeometry width="160" relative="1" as="geometry">
            <mxPoint x="120" y="546" as="sourcePoint" />
            <mxPoint x="120" y="476" as="targetPoint" />
          </mxGeometry>
        </mxCell>
        <mxCell id="s89tCDc4q5UGyIlG00Sl-114" value="Dodaj trasę" style="ellipse;whiteSpace=wrap;html=1;" parent="s89tCDc4q5UGyIlG00Sl-3" vertex="1">
          <mxGeometry x="876" y="476" width="90" height="64" as="geometry" />
        </mxCell>
        <mxCell id="s89tCDc4q5UGyIlG00Sl-115" value="&amp;lt;&amp;lt;extend&amp;gt;&amp;gt;" style="endArrow=open;endSize=12;dashed=1;html=1;rounded=0;entryX=0.5;entryY=1;entryDx=0;entryDy=0;exitX=0.5;exitY=0;exitDx=0;exitDy=0;" parent="s89tCDc4q5UGyIlG00Sl-3" source="s89tCDc4q5UGyIlG00Sl-114" target="s89tCDc4q5UGyIlG00Sl-75" edge="1">
          <mxGeometry width="160" relative="1" as="geometry">
            <mxPoint x="590" y="661" as="sourcePoint" />
            <mxPoint x="560" y="546" as="targetPoint" />
          </mxGeometry>
        </mxCell>
        <mxCell id="s89tCDc4q5UGyIlG00Sl-116" value="Dodaj środek transportu" style="ellipse;whiteSpace=wrap;html=1;" parent="s89tCDc4q5UGyIlG00Sl-3" vertex="1">
          <mxGeometry x="631" y="563" width="90" height="64" as="geometry" />
        </mxCell>
        <mxCell id="s89tCDc4q5UGyIlG00Sl-117" value="Dodaj przedmiot" style="ellipse;whiteSpace=wrap;html=1;" parent="s89tCDc4q5UGyIlG00Sl-3" vertex="1">
          <mxGeometry x="711" y="516" width="90" height="64" as="geometry" />
        </mxCell>
        <mxCell id="s89tCDc4q5UGyIlG00Sl-118" value="&amp;lt;&amp;lt;extend&amp;gt;&amp;gt;" style="endArrow=open;endSize=12;dashed=1;html=1;rounded=0;entryX=0.5;entryY=1;entryDx=0;entryDy=0;exitX=0.5;exitY=0;exitDx=0;exitDy=0;" parent="s89tCDc4q5UGyIlG00Sl-3" source="s89tCDc4q5UGyIlG00Sl-116" target="s89tCDc4q5UGyIlG00Sl-68" edge="1">
          <mxGeometry width="160" relative="1" as="geometry">
            <mxPoint x="895" y="472" as="sourcePoint" />
            <mxPoint x="900" y="396" as="targetPoint" />
          </mxGeometry>
        </mxCell>
        <mxCell id="s89tCDc4q5UGyIlG00Sl-119" value="&amp;lt;&amp;lt;extend&amp;gt;&amp;gt;" style="endArrow=open;endSize=12;dashed=1;html=1;rounded=0;entryX=0;entryY=1;entryDx=0;entryDy=0;exitX=0.5;exitY=0;exitDx=0;exitDy=0;" parent="s89tCDc4q5UGyIlG00Sl-3" source="s89tCDc4q5UGyIlG00Sl-117" target="s89tCDc4q5UGyIlG00Sl-55" edge="1">
          <mxGeometry width="160" relative="1" as="geometry">
            <mxPoint x="900" y="472" as="sourcePoint" />
            <mxPoint x="900" y="396" as="targetPoint" />
          </mxGeometry>
        </mxCell>
        <mxCell id="s89tCDc4q5UGyIlG00Sl-122" value="&amp;lt;&amp;lt;extend&amp;gt;&amp;gt;" style="endArrow=open;endSize=12;dashed=1;html=1;rounded=0;entryX=1;entryY=0.5;entryDx=0;entryDy=0;exitX=0;exitY=0;exitDx=0;exitDy=0;" parent="s89tCDc4q5UGyIlG00Sl-3" source="s89tCDc4q5UGyIlG00Sl-123" target="s89tCDc4q5UGyIlG00Sl-108" edge="1">
          <mxGeometry width="160" relative="1" as="geometry">
            <mxPoint x="680" y="566" as="sourcePoint" />
            <mxPoint x="680" y="531" as="targetPoint" />
          </mxGeometry>
        </mxCell>
        <mxCell id="s89tCDc4q5UGyIlG00Sl-123" value="Dodaj środki finansowe" style="ellipse;whiteSpace=wrap;html=1;" parent="s89tCDc4q5UGyIlG00Sl-3" vertex="1">
          <mxGeometry x="661" y="660" width="90" height="64" as="geometry" />
        </mxCell>
        <mxCell id="s89tCDc4q5UGyIlG00Sl-124" value="Dodaj zasoby" style="ellipse;whiteSpace=wrap;html=1;" parent="s89tCDc4q5UGyIlG00Sl-3" vertex="1">
          <mxGeometry x="861" y="591" width="120" height="80" as="geometry" />
        </mxCell>
        <mxCell id="s89tCDc4q5UGyIlG00Sl-125" value="" style="endArrow=block;endSize=16;endFill=0;html=1;rounded=0;entryX=0.5;entryY=0;entryDx=0;entryDy=0;exitX=0.5;exitY=1;exitDx=0;exitDy=0;" parent="s89tCDc4q5UGyIlG00Sl-3" source="s89tCDc4q5UGyIlG00Sl-114" target="s89tCDc4q5UGyIlG00Sl-124" edge="1">
          <mxGeometry width="160" relative="1" as="geometry">
            <mxPoint x="560" y="516" as="sourcePoint" />
            <mxPoint x="560" y="300" as="targetPoint" />
          </mxGeometry>
        </mxCell>
        <mxCell id="s89tCDc4q5UGyIlG00Sl-126" value="" style="endArrow=block;endSize=16;endFill=0;html=1;rounded=0;entryX=0;entryY=0;entryDx=0;entryDy=0;exitX=1;exitY=1;exitDx=0;exitDy=0;" parent="s89tCDc4q5UGyIlG00Sl-3" source="s89tCDc4q5UGyIlG00Sl-117" target="s89tCDc4q5UGyIlG00Sl-124" edge="1">
          <mxGeometry width="160" relative="1" as="geometry">
            <mxPoint x="440" y="336" as="sourcePoint" />
            <mxPoint x="518" y="288" as="targetPoint" />
          </mxGeometry>
        </mxCell>
        <mxCell id="s89tCDc4q5UGyIlG00Sl-127" value="" style="endArrow=block;endSize=16;endFill=0;html=1;rounded=0;entryX=0;entryY=0.5;entryDx=0;entryDy=0;exitX=1;exitY=0.5;exitDx=0;exitDy=0;" parent="s89tCDc4q5UGyIlG00Sl-3" source="s89tCDc4q5UGyIlG00Sl-116" target="s89tCDc4q5UGyIlG00Sl-124" edge="1">
          <mxGeometry width="160" relative="1" as="geometry">
            <mxPoint x="797" y="466" as="sourcePoint" />
            <mxPoint x="863" y="536" as="targetPoint" />
          </mxGeometry>
        </mxCell>
        <mxCell id="s89tCDc4q5UGyIlG00Sl-128" value="" style="endArrow=block;endSize=16;endFill=0;html=1;rounded=0;entryX=0;entryY=1;entryDx=0;entryDy=0;exitX=1;exitY=0.5;exitDx=0;exitDy=0;" parent="s89tCDc4q5UGyIlG00Sl-3" source="s89tCDc4q5UGyIlG00Sl-123" target="s89tCDc4q5UGyIlG00Sl-124" edge="1">
          <mxGeometry width="160" relative="1" as="geometry">
            <mxPoint x="730" y="504" as="sourcePoint" />
            <mxPoint x="870" y="581" as="targetPoint" />
          </mxGeometry>
        </mxCell>
        <mxCell id="SWgBInYZPmPmGNbcoqVF-1" value="Generuj raport" style="ellipse;whiteSpace=wrap;html=1;" parent="s89tCDc4q5UGyIlG00Sl-3" vertex="1">
          <mxGeometry x="990" y="490" width="120" height="80" as="geometry" />
        </mxCell>
        <mxCell id="1zkh3srqw6TiqgxPlSmz-1" value="Przekaż do realizacji" style="ellipse;whiteSpace=wrap;html=1;" vertex="1" parent="s89tCDc4q5UGyIlG00Sl-3">
          <mxGeometry x="611" y="96" width="120" height="80" as="geometry" />
        </mxCell>
        <mxCell id="s89tCDc4q5UGyIlG00Sl-79" value="&amp;lt;&amp;lt;include&amp;gt;&amp;gt;" style="endArrow=open;endSize=12;dashed=1;html=1;rounded=0;exitX=0.5;exitY=0;exitDx=0;exitDy=0;entryX=0;entryY=1;entryDx=0;entryDy=0;" parent="s89tCDc4q5UGyIlG00Sl-3" source="s89tCDc4q5UGyIlG00Sl-38" target="1zkh3srqw6TiqgxPlSmz-1" edge="1">
          <mxGeometry width="160" relative="1" as="geometry">
            <mxPoint x="800" y="236" as="sourcePoint" />
            <mxPoint x="710" y="146" as="targetPoint" />
          </mxGeometry>
        </mxCell>
        <mxCell id="s89tCDc4q5UGyIlG00Sl-80" value="Przydziel&amp;nbsp;&lt;div&gt;organizację pomocową&lt;/div&gt;" style="ellipse;whiteSpace=wrap;html=1;" parent="s89tCDc4q5UGyIlG00Sl-3" vertex="1">
          <mxGeometry x="757" y="30" width="119" height="84" as="geometry" />
        </mxCell>
        <mxCell id="1zkh3srqw6TiqgxPlSmz-2" value="" style="endArrow=block;endSize=16;endFill=0;html=1;rounded=0;entryX=1;entryY=0;entryDx=0;entryDy=0;exitX=0;exitY=0.5;exitDx=0;exitDy=0;" edge="1" parent="s89tCDc4q5UGyIlG00Sl-3" source="s89tCDc4q5UGyIlG00Sl-80" target="1zkh3srqw6TiqgxPlSmz-1">
          <mxGeometry width="160" relative="1" as="geometry">
            <mxPoint x="483" y="408" as="sourcePoint" />
            <mxPoint x="519" y="348" as="targetPoint" />
          </mxGeometry>
        </mxCell>
        <mxCell id="1zkh3srqw6TiqgxPlSmz-4" value="Przydziel&lt;div&gt;sobie&lt;/div&gt;" style="ellipse;whiteSpace=wrap;html=1;" vertex="1" parent="s89tCDc4q5UGyIlG00Sl-3">
          <mxGeometry x="491.5" y="10" width="119" height="80" as="geometry" />
        </mxCell>
        <mxCell id="1zkh3srqw6TiqgxPlSmz-3" value="" style="endArrow=block;endSize=16;endFill=0;html=1;rounded=0;entryX=0;entryY=0;entryDx=0;entryDy=0;exitX=1;exitY=1;exitDx=0;exitDy=0;" edge="1" parent="s89tCDc4q5UGyIlG00Sl-3" source="1zkh3srqw6TiqgxPlSmz-4" target="1zkh3srqw6TiqgxPlSmz-1">
          <mxGeometry width="160" relative="1" as="geometry">
            <mxPoint x="520" y="-170" as="sourcePoint" />
            <mxPoint x="603" y="292" as="targetPoint" />
          </mxGeometry>
        </mxCell>
        <mxCell id="1zkh3srqw6TiqgxPlSmz-6" value="&amp;lt;&amp;lt;include&amp;gt;&amp;gt;" style="endArrow=open;endSize=12;dashed=1;html=1;rounded=0;exitX=1;exitY=0;exitDx=0;exitDy=0;entryX=0;entryY=1;entryDx=0;entryDy=0;" edge="1" parent="s89tCDc4q5UGyIlG00Sl-3" source="s89tCDc4q5UGyIlG00Sl-11" target="1zkh3srqw6TiqgxPlSmz-7">
          <mxGeometry width="160" relative="1" as="geometry">
            <mxPoint x="196" y="440" as="sourcePoint" />
            <mxPoint x="270" y="402" as="targetPoint" />
          </mxGeometry>
        </mxCell>
        <mxCell id="1zkh3srqw6TiqgxPlSmz-7" value="Zobacz stan realizacji" style="ellipse;whiteSpace=wrap;html=1;" vertex="1" parent="s89tCDc4q5UGyIlG00Sl-3">
          <mxGeometry x="191" y="354" width="90" height="64" as="geometry" />
        </mxCell>
        <mxCell id="1zkh3srqw6TiqgxPlSmz-8" value="&amp;lt;&amp;lt;extend&amp;gt;&amp;gt;" style="endArrow=open;endSize=12;dashed=1;html=1;rounded=0;exitX=0;exitY=0;exitDx=0;exitDy=0;entryX=0.5;entryY=1;entryDx=0;entryDy=0;" edge="1" parent="s89tCDc4q5UGyIlG00Sl-3" source="s89tCDc4q5UGyIlG00Sl-86" target="1zkh3srqw6TiqgxPlSmz-21">
          <mxGeometry width="160" relative="1" as="geometry">
            <mxPoint x="261" y="576" as="sourcePoint" />
            <mxPoint x="470" y="1060" as="targetPoint" />
          </mxGeometry>
        </mxCell>
        <mxCell id="1zkh3srqw6TiqgxPlSmz-9" value="&amp;lt;&amp;lt;extend&amp;gt;&amp;gt;" style="endArrow=open;endSize=12;dashed=1;html=1;rounded=0;entryX=1;entryY=0.5;entryDx=0;entryDy=0;exitX=0;exitY=0.5;exitDx=0;exitDy=0;" edge="1" parent="s89tCDc4q5UGyIlG00Sl-3" source="s89tCDc4q5UGyIlG00Sl-38" target="1zkh3srqw6TiqgxPlSmz-7">
          <mxGeometry width="160" relative="1" as="geometry">
            <mxPoint x="219" y="588" as="sourcePoint" />
            <mxPoint x="246" y="428" as="targetPoint" />
          </mxGeometry>
        </mxCell>
        <mxCell id="1zkh3srqw6TiqgxPlSmz-11" value="Wyświetl dostępne zasoby" style="ellipse;whiteSpace=wrap;html=1;" vertex="1" parent="s89tCDc4q5UGyIlG00Sl-3">
          <mxGeometry x="990" y="700" width="120" height="80" as="geometry" />
        </mxCell>
        <mxCell id="1zkh3srqw6TiqgxPlSmz-12" value="&amp;lt;&amp;lt;extend&amp;gt;&amp;gt;" style="endArrow=open;endSize=12;dashed=1;html=1;rounded=0;entryX=0.5;entryY=0;entryDx=0;entryDy=0;exitX=1;exitY=1;exitDx=0;exitDy=0;" edge="1" parent="s89tCDc4q5UGyIlG00Sl-3" source="s89tCDc4q5UGyIlG00Sl-124" target="1zkh3srqw6TiqgxPlSmz-11">
          <mxGeometry width="160" relative="1" as="geometry">
            <mxPoint x="684" y="655" as="sourcePoint" />
            <mxPoint x="621" y="616" as="targetPoint" />
          </mxGeometry>
        </mxCell>
        <mxCell id="1zkh3srqw6TiqgxPlSmz-13" value="&amp;lt;&amp;lt;extend&amp;gt;&amp;gt;" style="endArrow=open;endSize=12;dashed=1;html=1;rounded=0;entryX=0;entryY=1;entryDx=0;entryDy=0;exitX=1;exitY=0.5;exitDx=0;exitDy=0;" edge="1" parent="s89tCDc4q5UGyIlG00Sl-3" source="s89tCDc4q5UGyIlG00Sl-124" target="SWgBInYZPmPmGNbcoqVF-1">
          <mxGeometry width="160" relative="1" as="geometry">
            <mxPoint x="1083" y="636" as="sourcePoint" />
            <mxPoint x="1020" y="597" as="targetPoint" />
          </mxGeometry>
        </mxCell>
        <mxCell id="SWgBInYZPmPmGNbcoqVF-2" value="Rekrutuj wolontariusza" style="ellipse;whiteSpace=wrap;html=1;" parent="s89tCDc4q5UGyIlG00Sl-3" vertex="1">
          <mxGeometry x="400" y="711" width="120" height="80" as="geometry" />
        </mxCell>
        <mxCell id="1zkh3srqw6TiqgxPlSmz-15" value="&amp;lt;&amp;lt;extend&amp;gt;&amp;gt;" style="endArrow=open;endSize=12;dashed=1;html=1;rounded=0;entryX=0.5;entryY=1;entryDx=0;entryDy=0;exitX=0.5;exitY=0;exitDx=0;exitDy=0;" edge="1" parent="s89tCDc4q5UGyIlG00Sl-3" source="SWgBInYZPmPmGNbcoqVF-2" target="s89tCDc4q5UGyIlG00Sl-51">
          <mxGeometry width="160" relative="1" as="geometry">
            <mxPoint x="684" y="679" as="sourcePoint" />
            <mxPoint x="621" y="616" as="targetPoint" />
          </mxGeometry>
        </mxCell>
        <mxCell id="1zkh3srqw6TiqgxPlSmz-21" value="Aktualizuj stastus zadania" style="ellipse;whiteSpace=wrap;html=1;" vertex="1" parent="s89tCDc4q5UGyIlG00Sl-3">
          <mxGeometry x="174" y="474" width="120" height="80" as="geometry" />
        </mxCell>
        <mxCell id="1zkh3srqw6TiqgxPlSmz-22" value="&amp;lt;&amp;lt;extend&amp;gt;&amp;gt;" style="endArrow=open;endSize=12;dashed=1;html=1;rounded=0;exitX=0.5;exitY=0;exitDx=0;exitDy=0;entryX=0.5;entryY=1;entryDx=0;entryDy=0;" edge="1" parent="s89tCDc4q5UGyIlG00Sl-3" source="1zkh3srqw6TiqgxPlSmz-21" target="1zkh3srqw6TiqgxPlSmz-7">
          <mxGeometry width="160" relative="1" as="geometry">
            <mxPoint x="262" y="649" as="sourcePoint" />
            <mxPoint x="244" y="564" as="targetPoint" />
          </mxGeometry>
        </mxCell>
        <mxCell id="1zkh3srqw6TiqgxPlSmz-27" value="Wyświetl dane w systemie" style="ellipse;whiteSpace=wrap;html=1;" vertex="1" parent="s89tCDc4q5UGyIlG00Sl-3">
          <mxGeometry x="981" y="220" width="120" height="80" as="geometry" />
        </mxCell>
        <mxCell id="1zkh3srqw6TiqgxPlSmz-29" value="&amp;lt;&amp;lt;extend&amp;gt;&amp;gt;" style="endArrow=open;endSize=12;dashed=1;html=1;rounded=0;entryX=0;entryY=0;entryDx=0;entryDy=0;exitX=0.393;exitY=0.938;exitDx=0;exitDy=0;exitPerimeter=0;" edge="1" parent="s89tCDc4q5UGyIlG00Sl-3" source="1zkh3srqw6TiqgxPlSmz-31" target="1zkh3srqw6TiqgxPlSmz-27">
          <mxGeometry width="160" relative="1" as="geometry">
            <mxPoint x="827" y="190" as="sourcePoint" />
            <mxPoint x="768" y="936" as="targetPoint" />
          </mxGeometry>
        </mxCell>
        <mxCell id="1zkh3srqw6TiqgxPlSmz-31" value="Filtruj dane" style="ellipse;whiteSpace=wrap;html=1;" vertex="1" parent="s89tCDc4q5UGyIlG00Sl-3">
          <mxGeometry x="865" y="90" width="90" height="64" as="geometry" />
        </mxCell>
        <mxCell id="1zkh3srqw6TiqgxPlSmz-32" value="Sortuj dane" style="ellipse;whiteSpace=wrap;html=1;" vertex="1" parent="s89tCDc4q5UGyIlG00Sl-3">
          <mxGeometry x="996" y="120" width="90" height="64" as="geometry" />
        </mxCell>
        <mxCell id="1zkh3srqw6TiqgxPlSmz-33" value="&amp;lt;&amp;lt;extend&amp;gt;&amp;gt;" style="endArrow=open;endSize=12;dashed=1;html=1;rounded=0;entryX=1;entryY=0;entryDx=0;entryDy=0;exitX=0.5;exitY=1;exitDx=0;exitDy=0;" edge="1" parent="s89tCDc4q5UGyIlG00Sl-3" source="1zkh3srqw6TiqgxPlSmz-32" target="1zkh3srqw6TiqgxPlSmz-27">
          <mxGeometry width="160" relative="1" as="geometry">
            <mxPoint x="862" y="140" as="sourcePoint" />
            <mxPoint x="945" y="282" as="targetPoint" />
          </mxGeometry>
        </mxCell>
        <mxCell id="1zkh3srqw6TiqgxPlSmz-36" value="Wyświetl dane organizacji" style="ellipse;whiteSpace=wrap;html=1;" vertex="1" parent="s89tCDc4q5UGyIlG00Sl-3">
          <mxGeometry x="981" y="324" width="120" height="80" as="geometry" />
        </mxCell>
        <mxCell id="1zkh3srqw6TiqgxPlSmz-37" value="&amp;lt;&amp;lt;extend&amp;gt;&amp;gt;" style="endArrow=open;endSize=12;dashed=1;html=1;rounded=0;entryX=0;entryY=1;entryDx=0;entryDy=0;exitX=1;exitY=0;exitDx=0;exitDy=0;" edge="1" parent="s89tCDc4q5UGyIlG00Sl-3" source="s89tCDc4q5UGyIlG00Sl-124" target="1zkh3srqw6TiqgxPlSmz-36">
          <mxGeometry x="0.4546" y="-1" width="160" relative="1" as="geometry">
            <mxPoint x="973" y="669" as="sourcePoint" />
            <mxPoint x="1060" y="710" as="targetPoint" />
            <mxPoint as="offset" />
          </mxGeometry>
        </mxCell>
        <mxCell id="1zkh3srqw6TiqgxPlSmz-39" value="&lt;b&gt;&lt;font style=&quot;font-size: 18px;&quot;&gt;System koordynacji pomocy humanitarnej&lt;/font&gt;&lt;/b&gt;" style="text;html=1;align=center;verticalAlign=middle;resizable=0;points=[];autosize=1;strokeColor=none;fillColor=none;" vertex="1" parent="s89tCDc4q5UGyIlG00Sl-3">
          <mxGeometry x="51" y="20" width="390" height="40" as="geometry" />
        </mxCell>
        <mxCell id="s89tCDc4q5UGyIlG00Sl-14" value="" style="endArrow=none;html=1;rounded=0;entryX=0;entryY=0.5;entryDx=0;entryDy=0;exitX=1;exitY=0.3333333333333333;exitDx=0;exitDy=0;exitPerimeter=0;" parent="1" source="s89tCDc4q5UGyIlG00Sl-1" target="s89tCDc4q5UGyIlG00Sl-8" edge="1">
          <mxGeometry width="50" height="50" relative="1" as="geometry">
            <mxPoint x="300" y="360" as="sourcePoint" />
            <mxPoint x="350" y="310" as="targetPoint" />
          </mxGeometry>
        </mxCell>
        <mxCell id="s89tCDc4q5UGyIlG00Sl-15" value="" style="endArrow=none;html=1;rounded=0;entryX=0;entryY=0.5;entryDx=0;entryDy=0;exitX=1;exitY=0.3333333333333333;exitDx=0;exitDy=0;exitPerimeter=0;" parent="1" source="s89tCDc4q5UGyIlG00Sl-1" target="s89tCDc4q5UGyIlG00Sl-13" edge="1">
          <mxGeometry width="50" height="50" relative="1" as="geometry">
            <mxPoint x="130" y="330" as="sourcePoint" />
            <mxPoint x="350" y="310" as="targetPoint" />
          </mxGeometry>
        </mxCell>
        <mxCell id="s89tCDc4q5UGyIlG00Sl-16" value="" style="endArrow=none;html=1;rounded=0;exitX=1;exitY=0.3333333333333333;exitDx=0;exitDy=0;exitPerimeter=0;entryX=0;entryY=0.5;entryDx=0;entryDy=0;" parent="1" source="s89tCDc4q5UGyIlG00Sl-1" target="s89tCDc4q5UGyIlG00Sl-11" edge="1">
          <mxGeometry width="50" height="50" relative="1" as="geometry">
            <mxPoint x="300" y="360" as="sourcePoint" />
            <mxPoint x="350" y="310" as="targetPoint" />
          </mxGeometry>
        </mxCell>
        <mxCell id="s89tCDc4q5UGyIlG00Sl-29" value="Darczyńca" style="shape=umlActor;verticalLabelPosition=bottom;verticalAlign=top;html=1;perimeterSpacing=8;" parent="1" vertex="1">
          <mxGeometry x="955" y="960" width="30" height="60" as="geometry" />
        </mxCell>
        <mxCell id="s89tCDc4q5UGyIlG00Sl-32" value="Organizacja&lt;div&gt;pomocowa&lt;/div&gt;" style="shape=umlActor;verticalLabelPosition=bottom;verticalAlign=top;html=1;strokeWidth=1;perimeterSpacing=8;" parent="1" vertex="1">
          <mxGeometry x="1350" y="320" width="30" height="60" as="geometry" />
        </mxCell>
        <mxCell id="s89tCDc4q5UGyIlG00Sl-35" value="Przedstawiciel&lt;br&gt;władz" style="shape=umlActor;verticalLabelPosition=bottom;verticalAlign=top;html=1;perimeterSpacing=8;" parent="1" vertex="1">
          <mxGeometry x="1350" y="110" width="30" height="60" as="geometry" />
        </mxCell>
        <mxCell id="s89tCDc4q5UGyIlG00Sl-41" value="" style="endArrow=block;endSize=16;endFill=0;html=1;rounded=0;entryX=0.5;entryY=0;entryDx=0;entryDy=0;entryPerimeter=0;" parent="1" target="s89tCDc4q5UGyIlG00Sl-32" edge="1">
          <mxGeometry width="160" relative="1" as="geometry">
            <mxPoint x="1365" y="210" as="sourcePoint" />
            <mxPoint x="1150" y="560" as="targetPoint" />
          </mxGeometry>
        </mxCell>
        <mxCell id="s89tCDc4q5UGyIlG00Sl-69" value="" style="endArrow=none;html=1;rounded=0;exitX=1;exitY=0.3333333333333333;exitDx=0;exitDy=0;exitPerimeter=0;entryX=0;entryY=0.5;entryDx=0;entryDy=0;" parent="1" source="s89tCDc4q5UGyIlG00Sl-1" target="s89tCDc4q5UGyIlG00Sl-48" edge="1">
          <mxGeometry width="50" height="50" relative="1" as="geometry">
            <mxPoint x="100" y="300" as="sourcePoint" />
            <mxPoint x="110" y="610" as="targetPoint" />
          </mxGeometry>
        </mxCell>
        <mxCell id="s89tCDc4q5UGyIlG00Sl-81" value="" style="endArrow=none;html=1;rounded=0;exitX=0;exitY=0.3333333333333333;exitDx=0;exitDy=0;exitPerimeter=0;entryX=1;entryY=0;entryDx=0;entryDy=0;" parent="1" source="s89tCDc4q5UGyIlG00Sl-32" target="s89tCDc4q5UGyIlG00Sl-38" edge="1">
          <mxGeometry width="50" height="50" relative="1" as="geometry">
            <mxPoint x="540" y="380" as="sourcePoint" />
            <mxPoint x="590" y="330" as="targetPoint" />
            <Array as="points">
              <mxPoint x="1010" y="230" />
              <mxPoint x="920" y="230" />
            </Array>
          </mxGeometry>
        </mxCell>
        <mxCell id="s89tCDc4q5UGyIlG00Sl-83" value="" style="endArrow=none;html=1;rounded=0;exitX=0;exitY=0.3333333333333333;exitDx=0;exitDy=0;exitPerimeter=0;entryX=1;entryY=0.5;entryDx=0;entryDy=0;" parent="1" source="s89tCDc4q5UGyIlG00Sl-35" target="1zkh3srqw6TiqgxPlSmz-32" edge="1">
          <mxGeometry width="50" height="50" relative="1" as="geometry">
            <mxPoint x="1190" y="-180" as="sourcePoint" />
            <mxPoint x="730" y="-170" as="targetPoint" />
          </mxGeometry>
        </mxCell>
        <mxCell id="s89tCDc4q5UGyIlG00Sl-102" value="" style="endArrow=none;html=1;rounded=0;entryX=0.5;entryY=0;entryDx=0;entryDy=0;entryPerimeter=0;exitX=1;exitY=1;exitDx=0;exitDy=0;" parent="1" source="s89tCDc4q5UGyIlG00Sl-99" target="s89tCDc4q5UGyIlG00Sl-29" edge="1">
          <mxGeometry width="50" height="50" relative="1" as="geometry">
            <mxPoint x="540" y="580" as="sourcePoint" />
            <mxPoint x="590" y="530" as="targetPoint" />
          </mxGeometry>
        </mxCell>
        <mxCell id="s89tCDc4q5UGyIlG00Sl-103" value="" style="endArrow=none;html=1;rounded=0;entryX=0.5;entryY=0;entryDx=0;entryDy=0;entryPerimeter=0;exitX=0.5;exitY=1;exitDx=0;exitDy=0;" parent="1" source="s89tCDc4q5UGyIlG00Sl-95" target="s89tCDc4q5UGyIlG00Sl-29" edge="1">
          <mxGeometry width="50" height="50" relative="1" as="geometry">
            <mxPoint x="540" y="580" as="sourcePoint" />
            <mxPoint x="590" y="530" as="targetPoint" />
          </mxGeometry>
        </mxCell>
        <mxCell id="s89tCDc4q5UGyIlG00Sl-105" value="" style="endArrow=none;html=1;rounded=0;exitX=0.5;exitY=0;exitDx=0;exitDy=0;exitPerimeter=0;entryX=0;entryY=1;entryDx=0;entryDy=0;" parent="1" source="s89tCDc4q5UGyIlG00Sl-29" target="s89tCDc4q5UGyIlG00Sl-92" edge="1">
          <mxGeometry width="50" height="50" relative="1" as="geometry">
            <mxPoint x="710" y="790" as="sourcePoint" />
            <mxPoint x="760" y="740" as="targetPoint" />
          </mxGeometry>
        </mxCell>
        <mxCell id="s89tCDc4q5UGyIlG00Sl-26" value="Wolontariusz" style="shape=umlActor;verticalLabelPosition=bottom;verticalAlign=top;html=1;perimeterSpacing=8;" parent="1" vertex="1">
          <mxGeometry x="414" y="960" width="30" height="60" as="geometry" />
        </mxCell>
        <mxCell id="s89tCDc4q5UGyIlG00Sl-50" value="" style="endArrow=none;html=1;rounded=0;exitX=0.5;exitY=1;exitDx=0;exitDy=0;entryX=0.5;entryY=0;entryDx=0;entryDy=0;entryPerimeter=0;" parent="1" source="s89tCDc4q5UGyIlG00Sl-67" target="s89tCDc4q5UGyIlG00Sl-26" edge="1">
          <mxGeometry width="50" height="50" relative="1" as="geometry">
            <mxPoint x="510" y="700" as="sourcePoint" />
            <mxPoint x="560" y="650" as="targetPoint" />
          </mxGeometry>
        </mxCell>
        <mxCell id="s89tCDc4q5UGyIlG00Sl-85" value="" style="endArrow=none;html=1;rounded=0;exitX=0.5;exitY=0;exitDx=0;exitDy=0;exitPerimeter=0;entryX=0.5;entryY=1;entryDx=0;entryDy=0;" parent="1" source="s89tCDc4q5UGyIlG00Sl-26" target="s89tCDc4q5UGyIlG00Sl-54" edge="1">
          <mxGeometry width="50" height="50" relative="1" as="geometry">
            <mxPoint x="540" y="680" as="sourcePoint" />
            <mxPoint x="590" y="630" as="targetPoint" />
          </mxGeometry>
        </mxCell>
        <mxCell id="s89tCDc4q5UGyIlG00Sl-89" value="" style="endArrow=none;html=1;rounded=0;exitX=0.5;exitY=0;exitDx=0;exitDy=0;exitPerimeter=0;entryX=0;entryY=1;entryDx=0;entryDy=0;" parent="1" source="s89tCDc4q5UGyIlG00Sl-26" target="s89tCDc4q5UGyIlG00Sl-86" edge="1">
          <mxGeometry width="50" height="50" relative="1" as="geometry">
            <mxPoint x="540" y="580" as="sourcePoint" />
            <mxPoint x="590" y="530" as="targetPoint" />
          </mxGeometry>
        </mxCell>
        <mxCell id="s89tCDc4q5UGyIlG00Sl-120" value="&lt;font style=&quot;font-size: 14px;&quot;&gt;uc Interakcje użytkowników zalogowanych&lt;/font&gt;" style="shape=umlFrame;whiteSpace=wrap;html=1;pointerEvents=0;recursiveResize=0;container=1;collapsible=0;width=300;height=35;" parent="1" vertex="1">
          <mxGeometry x="40" y="-95" width="1410" height="1185" as="geometry" />
        </mxCell>
        <mxCell id="s89tCDc4q5UGyIlG00Sl-121" value="" style="endArrow=block;endSize=16;endFill=0;html=1;rounded=0;exitX=0.5;exitY=0;exitDx=0;exitDy=0;exitPerimeter=0;entryX=0.75;entryY=0.1;entryDx=0;entryDy=0;entryPerimeter=0;" parent="1" source="s89tCDc4q5UGyIlG00Sl-1" edge="1" target="s89tCDc4q5UGyIlG00Sl-18">
          <mxGeometry width="160" relative="1" as="geometry">
            <mxPoint x="1066" y="59" as="sourcePoint" />
            <mxPoint x="1420" y="920" as="targetPoint" />
            <Array as="points">
              <mxPoint x="90" y="-50" />
              <mxPoint x="1420" y="-50" />
              <mxPoint x="1420" y="860" />
            </Array>
          </mxGeometry>
        </mxCell>
        <mxCell id="s89tCDc4q5UGyIlG00Sl-18" value="&lt;i&gt;Użytkownik&amp;nbsp;&lt;/i&gt;&lt;div&gt;&lt;i&gt;uwierzytelniony&lt;/i&gt;&lt;/div&gt;" style="shape=umlActor;verticalLabelPosition=bottom;verticalAlign=top;html=1;perimeterSpacing=8;" parent="1" vertex="1">
          <mxGeometry x="1350" y="940" width="30" height="60" as="geometry" />
        </mxCell>
        <mxCell id="1zkh3srqw6TiqgxPlSmz-14" value="Organizacja&lt;div&gt;pomocowa&lt;/div&gt;" style="shape=umlActor;verticalLabelPosition=bottom;verticalAlign=top;html=1;strokeWidth=1;perimeterSpacing=8;" vertex="1" parent="1">
          <mxGeometry x="625" y="960" width="30" height="60" as="geometry" />
        </mxCell>
        <mxCell id="1zkh3srqw6TiqgxPlSmz-16" value="" style="endArrow=none;html=1;rounded=0;exitX=0.5;exitY=0;exitDx=0;exitDy=0;exitPerimeter=0;entryX=0.5;entryY=1;entryDx=0;entryDy=0;" edge="1" parent="1" source="1zkh3srqw6TiqgxPlSmz-14" target="SWgBInYZPmPmGNbcoqVF-2">
          <mxGeometry width="50" height="50" relative="1" as="geometry">
            <mxPoint x="810" y="560" as="sourcePoint" />
            <mxPoint x="860" y="510" as="targetPoint" />
          </mxGeometry>
        </mxCell>
        <mxCell id="1zkh3srqw6TiqgxPlSmz-17" value="" style="endArrow=none;html=1;rounded=0;entryX=0;entryY=0.3333333333333333;entryDx=0;entryDy=0;entryPerimeter=0;exitX=0.5;exitY=0;exitDx=0;exitDy=0;" edge="1" parent="1" source="SWgBInYZPmPmGNbcoqVF-1" target="s89tCDc4q5UGyIlG00Sl-32">
          <mxGeometry width="50" height="50" relative="1" as="geometry">
            <mxPoint x="880" y="650" as="sourcePoint" />
            <mxPoint x="930" y="600" as="targetPoint" />
          </mxGeometry>
        </mxCell>
        <mxCell id="1zkh3srqw6TiqgxPlSmz-18" value="" style="endArrow=none;html=1;rounded=0;entryX=0;entryY=0.3333333333333333;entryDx=0;entryDy=0;entryPerimeter=0;exitX=1;exitY=0;exitDx=0;exitDy=0;" edge="1" parent="1" source="1zkh3srqw6TiqgxPlSmz-11" target="s89tCDc4q5UGyIlG00Sl-32">
          <mxGeometry width="50" height="50" relative="1" as="geometry">
            <mxPoint x="880" y="650" as="sourcePoint" />
            <mxPoint x="930" y="600" as="targetPoint" />
          </mxGeometry>
        </mxCell>
        <mxCell id="1zkh3srqw6TiqgxPlSmz-23" value="" style="endArrow=none;html=1;rounded=0;entryX=0;entryY=1;entryDx=0;entryDy=0;exitX=0.5;exitY=0;exitDx=0;exitDy=0;exitPerimeter=0;" edge="1" parent="1" source="1zkh3srqw6TiqgxPlSmz-14" target="1zkh3srqw6TiqgxPlSmz-21">
          <mxGeometry width="50" height="50" relative="1" as="geometry">
            <mxPoint x="880" y="650" as="sourcePoint" />
            <mxPoint x="930" y="600" as="targetPoint" />
            <Array as="points">
              <mxPoint x="372" y="860" />
            </Array>
          </mxGeometry>
        </mxCell>
        <mxCell id="1zkh3srqw6TiqgxPlSmz-25" value="" style="endArrow=none;html=1;rounded=0;entryX=1;entryY=0;entryDx=0;entryDy=0;exitX=0;exitY=0.3333333333333333;exitDx=0;exitDy=0;exitPerimeter=0;" edge="1" parent="1" source="s89tCDc4q5UGyIlG00Sl-35" target="1zkh3srqw6TiqgxPlSmz-4">
          <mxGeometry width="50" height="50" relative="1" as="geometry">
            <mxPoint x="880" y="520" as="sourcePoint" />
            <mxPoint x="930" y="470" as="targetPoint" />
            <Array as="points">
              <mxPoint x="1260" y="12" />
            </Array>
          </mxGeometry>
        </mxCell>
        <mxCell id="1zkh3srqw6TiqgxPlSmz-26" value="" style="endArrow=none;html=1;rounded=0;entryX=1;entryY=0.5;entryDx=0;entryDy=0;exitX=0;exitY=0.3333333333333333;exitDx=0;exitDy=0;exitPerimeter=0;" edge="1" parent="1" source="s89tCDc4q5UGyIlG00Sl-35" target="s89tCDc4q5UGyIlG00Sl-80">
          <mxGeometry width="50" height="50" relative="1" as="geometry">
            <mxPoint x="880" y="520" as="sourcePoint" />
            <mxPoint x="930" y="470" as="targetPoint" />
            <Array as="points">
              <mxPoint x="1260" y="62" />
            </Array>
          </mxGeometry>
        </mxCell>
        <mxCell id="1zkh3srqw6TiqgxPlSmz-34" value="" style="endArrow=none;html=1;rounded=0;entryX=0;entryY=0.3333333333333333;entryDx=0;entryDy=0;entryPerimeter=0;exitX=1;exitY=0.5;exitDx=0;exitDy=0;" edge="1" parent="1" source="1zkh3srqw6TiqgxPlSmz-27" target="s89tCDc4q5UGyIlG00Sl-35">
          <mxGeometry width="50" height="50" relative="1" as="geometry">
            <mxPoint x="740" y="250" as="sourcePoint" />
            <mxPoint x="790" y="200" as="targetPoint" />
          </mxGeometry>
        </mxCell>
        <mxCell id="1zkh3srqw6TiqgxPlSmz-35" value="" style="endArrow=none;html=1;rounded=0;entryX=1;entryY=0;entryDx=0;entryDy=0;exitX=0;exitY=0.3333333333333333;exitDx=0;exitDy=0;exitPerimeter=0;" edge="1" parent="1" source="s89tCDc4q5UGyIlG00Sl-35" target="1zkh3srqw6TiqgxPlSmz-31">
          <mxGeometry width="50" height="50" relative="1" as="geometry">
            <mxPoint x="1330" y="20" as="sourcePoint" />
            <mxPoint x="1276" y="152" as="targetPoint" />
            <Array as="points">
              <mxPoint x="1230" y="89" />
            </Array>
          </mxGeometry>
        </mxCell>
        <mxCell id="1zkh3srqw6TiqgxPlSmz-38" value="" style="endArrow=none;html=1;rounded=0;entryX=0;entryY=0.3333333333333333;entryDx=0;entryDy=0;entryPerimeter=0;exitX=1;exitY=0.5;exitDx=0;exitDy=0;" edge="1" parent="1" source="1zkh3srqw6TiqgxPlSmz-36" target="s89tCDc4q5UGyIlG00Sl-32">
          <mxGeometry width="50" height="50" relative="1" as="geometry">
            <mxPoint x="860" y="400" as="sourcePoint" />
            <mxPoint x="910" y="350" as="targetPoint" />
          </mxGeometry>
        </mxCell>
        <mxCell id="1zkh3srqw6TiqgxPlSmz-40" value="" style="endArrow=block;endSize=16;endFill=0;html=1;rounded=0;entryX=0.25;entryY=0.1;entryDx=0;entryDy=0;entryPerimeter=0;exitX=1;exitY=0.3333333333333333;exitDx=0;exitDy=0;exitPerimeter=0;" edge="1" parent="1" source="s89tCDc4q5UGyIlG00Sl-29" target="s89tCDc4q5UGyIlG00Sl-18">
          <mxGeometry width="160" relative="1" as="geometry">
            <mxPoint x="1375" y="220" as="sourcePoint" />
            <mxPoint x="1375" y="322" as="targetPoint" />
          </mxGeometry>
        </mxCell>
        <mxCell id="1zkh3srqw6TiqgxPlSmz-41" value="" style="endArrow=block;endSize=16;endFill=0;html=1;rounded=0;exitX=1;exitY=0.3333333333333333;exitDx=0;exitDy=0;exitPerimeter=0;entryX=0;entryY=0.3333333333333333;entryDx=0;entryDy=0;entryPerimeter=0;" edge="1" parent="1" source="1zkh3srqw6TiqgxPlSmz-14" target="s89tCDc4q5UGyIlG00Sl-18">
          <mxGeometry width="160" relative="1" as="geometry">
            <mxPoint x="1385" y="230" as="sourcePoint" />
            <mxPoint x="910" y="1070" as="targetPoint" />
            <Array as="points">
              <mxPoint x="800" y="1050" />
              <mxPoint x="1060" y="1050" />
            </Array>
          </mxGeometry>
        </mxCell>
        <mxCell id="1zkh3srqw6TiqgxPlSmz-42" value="" style="endArrow=block;endSize=16;endFill=0;html=1;rounded=0;entryX=0.5;entryY=0;entryDx=0;entryDy=0;entryPerimeter=0;" edge="1" parent="1" target="s89tCDc4q5UGyIlG00Sl-18">
          <mxGeometry width="160" relative="1" as="geometry">
            <mxPoint x="1365" y="420" as="sourcePoint" />
            <mxPoint x="1395" y="342" as="targetPoint" />
          </mxGeometry>
        </mxCell>
      </root>
    </mxGraphModel>
  </diagram>
</mxfile>
